HIERARCHY
ROOT Hips
{
    OFFSET   0.000000   0.000000   0.000000
    CHANNELS 6 Xposition Yposition Zposition Zrotation Xrotation Yrotation
    JOINT Chest
    {
        OFFSET   0.000000   8.007230   0.000000
        CHANNELS 3 Zrotation Xrotation Yrotation
        JOINT Chest2
        {
            OFFSET   0.000000  22.077100   0.000000
            CHANNELS 3 Zrotation Xrotation Yrotation
            JOINT Neck
            {
                OFFSET   0.000000  23.254700   0.000000
                CHANNELS 3 Zrotation Xrotation Yrotation
                JOINT Head
                {
                    OFFSET   0.000010  14.370000   1.956610
                    CHANNELS 3 Zrotation Xrotation Yrotation
                    End Site
                    {
                        OFFSET   0.000000  19.566000   0.000000
                    }
                }
            }
            JOINT LeftCollar
            {
                OFFSET   3.911900  19.017000  -0.467063
                CHANNELS 3 Zrotation Xrotation Yrotation
                JOINT LeftShoulder
                {
                    OFFSET  10.383700   0.000000   0.000000
                    CHANNELS 3 Zrotation Xrotation Yrotation
                    JOINT LeftElbow
                    {
                        OFFSET  26.662100   0.001671   0.000522
                        CHANNELS 3 Zrotation Xrotation Yrotation
                        JOINT LeftWrist
                        {
                            OFFSET  28.869000   0.000037  -0.000114
                            CHANNELS 3 Zrotation Xrotation Yrotation
                            JOINT LeftFinger0
                            {
                                OFFSET   2.044650  -2.323450   3.252850
                                CHANNELS 3 Zrotation Xrotation Yrotation
                                JOINT LeftFinger01
                                {
                                    OFFSET   3.088140   0.000000   0.000000
                                    CHANNELS 3 Zrotation Xrotation Yrotation
                                    JOINT LeftFinger02
                                    {
                                        OFFSET   2.639460   0.000000   0.000000
                                        CHANNELS 3 Zrotation Xrotation Yrotation
                                        End Site
                                        {
                                            OFFSET   2.582190   0.000000   0.000000
                                        }
                                    }
                                }
                            }
                            JOINT LeftFinger1
                            {
                                OFFSET   8.364480   0.000000   3.252850
                                CHANNELS 3 Zrotation Xrotation Yrotation
                                JOINT LeftFinger11
                                {
                                    OFFSET   4.646930   0.000000   0.000000
                                    CHANNELS 3 Zrotation Xrotation Yrotation
                                    JOINT LeftFinger12
                                    {
                                        OFFSET   2.323470   0.000000   0.000000
                                        CHANNELS 3 Zrotation Xrotation Yrotation
                                        End Site
                                        {
                                            OFFSET   2.273050   0.000000   0.000000
                                        }
                                    }
                                }
                            }
                            JOINT LeftFinger2
                            {
                                OFFSET   8.364490   0.000016   1.078090
                                CHANNELS 3 Zrotation Xrotation Yrotation
                                JOINT LeftFinger21
                                {
                                    OFFSET   5.111620   0.000000   0.000000
                                    CHANNELS 3 Zrotation Xrotation Yrotation
                                    JOINT LeftFinger22
                                    {
                                        OFFSET   2.788150   0.000013   0.000000
                                        CHANNELS 3 Zrotation Xrotation Yrotation
                                        End Site
                                        {
                                            OFFSET   2.727660   0.000000   0.000000
                                        }
                                    }
                                }
                            }
                            JOINT LeftFinger3
                            {
                                OFFSET   7.899780   0.000016  -1.078090
                                CHANNELS 3 Zrotation Xrotation Yrotation
                                JOINT LeftFinger31
                                {
                                    OFFSET   4.646930   0.000000   0.000000
                                    CHANNELS 3 Zrotation Xrotation Yrotation
                                    JOINT LeftFinger32
                                    {
                                        OFFSET   2.323470   0.000000   0.000000
                                        CHANNELS 3 Zrotation Xrotation Yrotation
                                        End Site
                                        {
                                            OFFSET   2.273050   0.000000   0.000000
                                        }
                                    }
                                }
                            }
                            JOINT LeftFinger4
                            {
                                OFFSET   7.435080   0.000000  -3.252850
                                CHANNELS 3 Zrotation Xrotation Yrotation
                                JOINT LeftFinger41
                                {
                                    OFFSET   3.717550   0.000000   0.000000
                                    CHANNELS 3 Zrotation Xrotation Yrotation
                                    JOINT LeftFinger42
                                    {
                                        OFFSET   1.858760   0.000000   0.000000
                                        CHANNELS 3 Zrotation Xrotation Yrotation
                                        End Site
                                        {
                                            OFFSET   1.818440   0.000000   0.000000
                                        }
                                    }
                                }
                            }
                        }
                    }
                }
            }
            JOINT RightCollar
            {
                OFFSET  -3.911900  19.017000  -0.467064
                CHANNELS 3 Zrotation Xrotation Yrotation
                JOINT RightShoulder
                {
                    OFFSET -10.383700   0.000000   0.000000
                    CHANNELS 3 Zrotation Xrotation Yrotation
                    JOINT RightElbow
                    {
                        OFFSET -26.662100   0.001633   0.000260
                        CHANNELS 3 Zrotation Xrotation Yrotation
                        JOINT RightWrist
                        {
                            OFFSET -28.869000  -0.000045  -0.000080
                            CHANNELS 3 Zrotation Xrotation Yrotation
                            JOINT RightFinger0
                            {
                                OFFSET  -2.044660  -2.323490   3.252850
                                CHANNELS 3 Zrotation Xrotation Yrotation
                                JOINT RightFinger01
                                {
                                    OFFSET  -3.088140   0.000000   0.000000
                                    CHANNELS 3 Zrotation Xrotation Yrotation
                                    JOINT RightFinger02
                                    {
                                        OFFSET  -2.639450   0.000000   0.000000
                                        CHANNELS 3 Zrotation Xrotation Yrotation
                                        End Site
                                        {
                                            OFFSET  -2.582190   0.000000   0.000000
                                        }
                                    }
                                }
                            }
                            JOINT RightFinger1
                            {
                                OFFSET  -8.364480   0.000000   3.252850
                                CHANNELS 3 Zrotation Xrotation Yrotation
                                JOINT RightFinger11
                                {
                                    OFFSET  -4.646920   0.000000   0.000000
                                    CHANNELS 3 Zrotation Xrotation Yrotation
                                    JOINT RightFinger12
                                    {
                                        OFFSET  -2.323470   0.000000   0.000000
                                        CHANNELS 3 Zrotation Xrotation Yrotation
                                        End Site
                                        {
                                            OFFSET  -2.273050   0.000000   0.000000
                                        }
                                    }
                                }
                            }
                            JOINT RightFinger2
                            {
                                OFFSET  -8.364480   0.000000   1.078090
                                CHANNELS 3 Zrotation Xrotation Yrotation
                                JOINT RightFinger21
                                {
                                    OFFSET  -5.111610   0.000000   0.000000
                                    CHANNELS 3 Zrotation Xrotation Yrotation
                                    JOINT RightFinger22
                                    {
                                        OFFSET  -2.788160   0.000000   0.000000
                                        CHANNELS 3 Zrotation Xrotation Yrotation
                                        End Site
                                        {
                                            OFFSET  -2.727660   0.000000   0.000000
                                        }
                                    }
                                }
                            }
                            JOINT RightFinger3
                            {
                                OFFSET  -7.899780   0.000000  -1.078090
                                CHANNELS 3 Zrotation Xrotation Yrotation
                                JOINT RightFinger31
                                {
                                    OFFSET  -4.646930   0.000000   0.000000
                                    CHANNELS 3 Zrotation Xrotation Yrotation
                                    JOINT RightFinger32
                                    {
                                        OFFSET  -2.323470   0.000000   0.000000
                                        CHANNELS 3 Zrotation Xrotation Yrotation
                                        End Site
                                        {
                                            OFFSET  -2.273050   0.000000   0.000000
                                        }
                                    }
                                }
                            }
                            JOINT RightFinger4
                            {
                                OFFSET  -7.435090   0.000000  -3.252850
                                CHANNELS 3 Zrotation Xrotation Yrotation
                                JOINT RightFinger41
                                {
                                    OFFSET  -3.717550   0.000000   0.000000
                                    CHANNELS 3 Zrotation Xrotation Yrotation
                                    JOINT RightFinger42
                                    {
                                        OFFSET  -1.858760   0.000000   0.000000
                                        CHANNELS 3 Zrotation Xrotation Yrotation
                                        End Site
                                        {
                                            OFFSET  -1.818440   0.000000   0.000000
                                        }
                                    }
                                }
                            }
                        }
                    }
                }
            }
        }
    }
    JOINT LeftHip
    {
        OFFSET   9.782990   0.000000   0.000000
        CHANNELS 3 Zrotation Xrotation Yrotation
        JOINT LeftKnee
        {
            OFFSET  -0.000063 -41.789100   0.001657
            CHANNELS 3 Zrotation Xrotation Yrotation
            JOINT LeftAnkle
            {
                OFFSET   0.000078 -41.133200  -0.000113
                CHANNELS 3 Zrotation Xrotation Yrotation
                JOINT LeftToe
                {
                    OFFSET   0.000000  -6.358970  14.674500
                    CHANNELS 3 Zrotation Xrotation Yrotation
                    End Site
                    {
                        OFFSET   0.000000   0.000000   3.913200
                    }
                }
            }
        }
    }
    JOINT RightHip
    {
        OFFSET  -9.782990   0.000000   0.000000
        CHANNELS 3 Zrotation Xrotation Yrotation
        JOINT RightKnee
        {
            OFFSET   0.000053 -41.789200   0.000277
            CHANNELS 3 Zrotation Xrotation Yrotation
            JOINT RightAnkle
            {
                OFFSET   0.000030 -41.133200  -0.000150
                CHANNELS 3 Zrotation Xrotation Yrotation
                JOINT RightToe
                {
                    OFFSET   0.000000  -6.358960  14.674500
                    CHANNELS 3 Zrotation Xrotation Yrotation
                    End Site
                    {
                        OFFSET   0.000000   0.000000   3.913200
                    }
                }
            }
        }
    }
}
MOTION
Frames: 4
Frame Time:   0.016667
 -0.476737  89.603900  -3.738130  -0.788246 -20.624200   8.609030   0.554096  12.601500   4.169370   0.145683  25.209200   8.533080   2.858830  -1.260870   0.066145   4.703060  -2.537840 -17.315700  -6.594160 -10.067900  -4.668470 -70.031400  23.965200  -7.875850  -0.142055  -5.613880 -16.931600  12.576900  -3.577310   4.017590  38.997800  31.405600 -55.377600 -32.062800   0.000000   0.000000 -11.031400   0.002567   0.000000 -32.344000   4.540190  -7.125190 -26.694800   0.004480   0.001569 -18.686300  -0.003069   0.006858 -29.103000  -1.035030   1.858910 -43.680200  -0.005051   0.005864 -29.091000  -0.005256   0.001662 -28.762500  -1.023730   1.865150 -40.948200  -0.005771   0.000691 -27.271500  -0.004580   0.001141 -35.688000  -1.241370   1.728000 -53.560600   0.000576   0.000068 -35.671400  -0.005691  -0.000000  10.830800  -6.280710  12.419600  52.096600 -11.160600  49.060200 -38.529700 -31.714900  60.761100   9.387760 -32.136700  28.595800 -56.880400  55.818800 105.001000  36.448900   0.000264  -0.000089  13.224400   0.007100   0.006916   7.054950   3.672800  27.363900   6.504270  -0.001451   0.006839   4.552980  -0.001028  -0.011829  89.000000  -0.004742   0.000000 101.529000  -0.000436   0.008548  76.146800   0.007150  -0.010169  88.996000  -4.995480  -0.089973 103.467000   0.005353  -0.000494  77.600400   0.000275  -0.009425  88.979500  -9.996450  -0.177407 110.000000  -0.003641  -0.002132  80.000000  -0.003980   0.006544   3.692050  19.981800   3.051280   1.050720   0.152823  -4.023410  -2.554030  -0.651448  -1.066720  -0.000000   0.000000   0.000000   5.673770  18.838100  -2.761310  -2.213910   5.953440  -9.082830  -0.015872  -5.450370  -4.771780   0.000000   0.000000   0.000000
 -0.473490  89.605700  -3.752020  -0.821062 -20.609700   8.568020   0.567695  12.584300   4.179310   0.173011  25.175700   8.549730   2.856730  -1.265680   0.067016   4.702830  -2.547210 -17.362300  -6.629570 -10.075500  -4.697240 -70.035300  24.013500  -7.947830  -0.066457  -5.581300 -17.049800  12.614100  -3.679250   4.004990  39.016300  31.422400 -55.325200 -32.072100   0.000000   0.000048 -11.036100   0.002516  -0.000000 -32.360700   4.491320  -7.046830 -26.701400   0.004677   0.001568 -18.690900  -0.003057   0.007166 -29.129600  -1.068280   1.916890 -43.722100  -0.005050   0.005865 -29.118900  -0.005256   0.001662 -28.761500  -1.055920   1.923720 -40.983200  -0.005774   0.000690 -27.294800  -0.004579   0.001142 -35.746000  -1.281860   1.781220 -53.649700   0.000577   0.000069 -35.730700  -0.005692  -0.000000  10.855000  -6.310720  12.408000  52.090900 -10.970600  48.980800 -38.658800 -31.684600  60.777100   9.358020 -32.109200  28.685400 -57.635800  56.033700 105.937000  36.225500   0.000363  -0.000091  13.112800   0.007252   0.007113   7.035780   3.663600  27.371200   6.487010  -0.001389   0.006951   4.540910  -0.000975  -0.011998  89.000000  -0.004837  -0.000000 101.873000  -0.000641   0.008690  76.404800   0.007263  -0.010135  88.996000  -4.995310  -0.090038 103.633000   0.005317  -0.000286  77.724700   0.000405  -0.009508  88.979500  -9.996410  -0.177416 110.000000  -0.003678  -0.002062  80.000000  -0.003976   0.006616   3.711690  19.981000   3.026300   1.033210   0.117585  -4.034900  -2.526780  -0.663119  -0.991017   0.000000   0.000000   0.000000   5.670250  18.778400  -2.703770  -2.205490   5.992500  -9.075930   0.003036  -5.439110  -4.793480   0.000000   0.000000  -0.000000
 -0.472346  89.607500  -3.768990  -0.867211 -20.581400   8.501990   0.582958  12.566300   4.194130   0.202682  25.140900   8.576100   2.853560  -1.278120   0.067887   4.696800  -2.572230 -17.419800  -6.667020 -10.090700  -4.732830 -70.043600  24.059900  -8.022030   0.009394  -5.555150 -17.167300  12.648700  -3.790860   3.990060  39.019000  31.458600 -55.242600 -32.094700   0.000000   0.000095 -11.047400   0.002462   0.000000 -32.384300   4.442480  -6.963120 -26.717500   0.004875   0.001567 -18.702200  -0.003035   0.007478 -29.153000  -1.131230   2.027000 -43.759500  -0.005050   0.005865 -29.143800  -0.005256   0.001662 -28.758600  -1.117000   2.034860 -41.033100  -0.005777   0.000690 -27.328000  -0.004579   0.001142 -35.800200  -1.358430   1.882380 -53.733700   0.000578   0.000070 -35.786600  -0.005694   0.000000  10.870000  -6.352980  12.384500  52.067000 -10.790900  48.884400 -38.780100 -31.612200  60.785000   9.277180 -32.043500  28.796100 -58.112100  56.215400 106.519000  36.115800   0.000462  -0.000093  13.057900   0.007401   0.007313   7.016620   3.654400  27.378600   6.469740  -0.001319   0.007053   4.528850  -0.000917  -0.012167  89.000000  -0.004932  -0.000000 102.231000  -0.000828   0.008817  76.672900   0.007365  -0.010089  88.996000  -4.995140  -0.090102 103.722000   0.005286  -0.000080  77.791700   0.000535  -0.009589  88.979400  -9.996370  -0.177426 110.000000  -0.003714  -0.001991  80.000000  -0.003975   0.006687   3.739400  19.980100   3.002010   1.015030   0.063451  -4.041050  -2.503690  -0.668548  -0.899101   0.000000   0.000000   0.000000   5.676040  18.697900  -2.641000  -2.199710   6.044810  -9.047230   0.022668  -5.431260  -4.816210  -0.000000   0.000000   0.000000
 -0.475694  89.609500  -3.788890  -0.930870 -20.548300   8.399340   0.599326  12.549100   4.219320   0.232093  25.107600   8.623810   2.851390  -1.297020   0.068748   4.692520  -2.610240 -17.493300  -6.701370 -10.122700  -4.780230 -70.067700  24.086000  -8.089650   0.080632  -5.533970 -17.288000  12.670000  -3.914070   3.972910  38.997100  31.521000 -55.175900 -32.138300   0.000000   0.000048 -11.069200   0.002407  -0.000000 -32.419000   4.445880  -6.958380 -26.746200   0.005076   0.001568 -18.722200  -0.003010   0.007793 -29.173200  -1.216770   2.177510 -43.794600  -0.005049   0.005866 -29.167200  -0.005256   0.001661 -28.754700  -1.200380   2.186570 -41.118900  -0.005775   0.000689 -27.385200  -0.004579   0.001142 -35.852900  -1.462250   2.020940 -53.818200   0.000576   0.000069 -35.842800  -0.005694   0.000000  10.854200  -6.414880  12.332200  52.023300 -10.650300  48.768100 -38.867400 -31.504400  60.770400   9.019820 -31.905200  28.837700 -58.210100  56.339400 106.625000  36.154400   0.000551  -0.000256  13.077200   0.007552   0.007529   6.799260   3.552680  27.464500   6.273790  -0.001240   0.007146   4.391690  -0.000853  -0.012339  89.000000  -0.005023  -0.000000 102.419000  -0.000986   0.008930  76.813800   0.007453  -0.010027  88.996000  -4.994970  -0.090166 103.662000   0.005252   0.000118  77.746600   0.000671  -0.009665  88.979400  -9.996330  -0.177437 110.000000  -0.003752  -0.001921  80.000000  -0.003977   0.006759   3.771190  19.969700   2.979430   0.999291   0.023094  -4.039280  -2.479660  -0.681958  -0.785375  -0.000000   0.000000   0.000000   5.701450  18.599300  -2.575050  -2.208030   6.108370  -8.985850   0.043248  -5.426240  -4.838680  -0.000000   0.000000   0.000000
